# xmcd
#
# Track frame offsets: 
#        180
#        14659
#        31298
#        48249
#        59301
#        86774
#        99909
#        114973
#        130844
#        142688
#
# Disc length: 2048 seconds
#
# Revision: 0
# Processed by: cddbd v1.5.1PL0 Copyright (c) Steve Scherf et al.
# Submitted via: ExactAudioCopy v0.95a3
#
DISCID=7707fe0a
DTITLE=Kerry Kearney - Blow your house down
DYEAR=1995
DGENRE=Blues
TTITLE0=Blow your little house down
TTITLE1=Perfect day for a suicide
TTITLE2=Five time man
TTITLE3=Trouble in Mind
TTITLE4=Runnin' Weepin
TTITLE5=Roll out my soul
TTITLE6=Rubinesque
TTITLE7=Feel like I'm Livin'
TTITLE8=Hotter than Ice Cream
TTITLE9=Big Bone Blues
EXTD=
EXTT0=
EXTT1=
EXTT2=
EXTT3=
EXTT4=
EXTT5=
EXTT6=
EXTT7=
EXTT8=
EXTT9=
PLAYORDER=
